<svg width="574" height="737" viewBox="0 0 574 737" fill="none" xmlns="http://www.w3.org/2000/svg">
<path fill-rule="evenodd" clip-rule="evenodd" d="M67.4727 5.92142C67.1704 6.4282 66.3778 18.4527 65.7088 32.6426C61.9911 111.459 54.0489 154.253 29.6251 227.062C8.50983 290.006 5.11839 306.507 5.00227 346.847C4.91012 378.521 7.5975 396.15 17.0769 426.022C29.4574 465.041 49.6069 494.622 92.4992 536.751C123.462 567.164 129.08 575.239 129.156 589.429C129.219 601.14 124.32 614.009 106.572 648.757C88.0148 685.092 87.9502 685.583 99.9013 700.699L107.165 709.886L70.7185 710.07C50.6741 710.171 32.2 710.826 29.6657 711.524C23.9556 713.1 22.5437 721.002 26.8088 727.513L29.7505 732H293.373C526.07 732 557.631 731.67 562.432 729.188C562.432 729.188 567.87 725.637 567.87 724.732C567.87 724.732 568.303 721.958 568.832 720.58C569.361 719.201 568.6 716.439 567.14 714.44C564.628 711.003 561.518 710.758 509.15 709.886L453.815 708.964L460.155 698.914C463.642 693.387 466.496 686.502 466.496 683.616C466.496 680.493 460.242 667.031 451.044 650.36C419.63 593.413 418.218 573.527 444.048 551.811C457.501 540.5 487.817 510.155 495.719 500.093C499.12 495.763 508.446 481.293 516.445 467.938C538.412 431.263 546.954 402.266 548.856 357.904C550.773 313.189 545.66 285.758 523.785 223.376C497.721 149.055 489.906 105.09 488.079 22.507L487.692 5H277.857C162.447 5 67.7731 5.41464 67.4727 5.92142ZM455.437 39.5532C455.439 51.786 461.318 116.18 463.659 129.605C467.036 148.963 479.916 193.57 492.318 228.859C507.082 270.872 514.534 299.924 518.088 329.34C520.462 348.992 516.956 386.84 510.662 409.503C501.978 440.772 486.82 470.448 469.008 491.06C440.199 524.391 407.568 547.466 365.223 564.444C302.681 589.519 231.092 586.359 171.519 555.891C135.93 537.691 102.056 509.107 76.6572 475.845C65.2314 460.883 48.4401 427.871 43.6387 410.931C35.9158 383.683 33.3963 347.458 37.1287 317.313C39.2299 300.333 49.9995 257.487 55.8736 242.726C63.0325 224.742 78.0746 177.971 82.2475 160.72C88.4147 135.23 93.7359 100.8 96.0602 71.3422C97.1808 57.1523 98.471 43.6923 98.9281 41.4311C99.7539 37.34 99.9824 37.316 141.664 36.7871C164.713 36.4941 244.741 36.0648 319.503 35.8307L455.437 35.4068V39.5532ZM489.356 293.751C485.289 301.614 468.005 319.727 456.2 328.496C420.758 354.822 366.79 379.491 317.555 391.871C271.192 403.525 213.958 411.374 175.72 411.317C156.468 411.289 117.316 408.69 106.157 406.7C100.799 405.744 100.841 405.83 107.539 409.496C115.465 413.832 157.314 424.202 188.292 429.507C224.803 435.76 254.229 437.756 293.926 436.672C325.049 435.823 334.584 434.859 353.141 430.688C392.358 421.874 424.23 409.829 443.604 396.502C448.226 393.321 452.418 391.126 452.915 391.626C456.651 395.359 407.017 432.588 384.987 442.577C355.779 455.817 314.706 467.728 279.525 473.157C251.557 477.473 197.047 476.087 170.668 470.389C129.233 461.438 108.988 451.892 87.318 431.088C80.9536 424.976 75.7448 420.424 75.7448 420.969C75.7448 423.643 85.7274 448.065 89.1354 453.731C101.486 474.264 129.272 501.627 155.922 519.502C213.936 558.414 281.245 567.61 347.842 545.722C384.25 533.757 414.341 514.726 441.687 486.37C474.624 452.218 489.292 420.697 498.825 363.567C503.409 336.097 500.707 292.853 494.154 288.803C493.22 288.228 491.061 290.454 489.356 293.751ZM191.586 598.51C234.598 609.285 250.925 611.264 296.925 611.272C343.422 611.281 358.597 609.33 376.002 601.101C388.261 595.304 390.869 596.015 380.938 602.445C367.66 611.042 339.133 621.173 317.199 625.084C295.295 628.987 254.836 632.487 231.592 632.487C208.554 632.487 195.551 634.521 195.551 638.124C195.551 641.896 228.165 647.288 277.807 651.722C295.17 653.274 310.763 655.076 312.457 655.725C316.74 657.369 315.299 662.433 309.805 665.05C303.053 668.264 278.253 674.487 259.213 677.743C250.049 679.31 239.234 681.541 235.179 682.702L227.806 684.812L237.943 686.115C243.519 686.832 282.572 688.046 324.729 688.813C407.573 690.317 414.017 689.823 425.485 681.09C428.781 678.58 431.476 677.214 431.476 678.055C431.476 682.166 425.087 687.654 415.07 692.149C404.656 696.822 401.445 697.24 361.975 699.078C338.87 700.154 293.423 701.138 260.983 701.263C211.418 701.455 199.889 700.994 188.766 698.37C168.222 693.523 135.454 682.501 131.093 678.97C127.298 675.898 127.263 675.528 130.126 668.418C131.757 664.366 138.451 650.27 145.005 637.094C152.513 621.995 157.712 608.852 159.063 601.551C160.792 592.204 161.763 590.195 164.093 591.156C165.682 591.812 178.053 595.119 191.586 598.51ZM413.11 646.461C417.193 655.983 417.429 657.092 415.06 655.629C413.23 654.498 407.197 638.015 408.613 638.015C409.094 638.015 411.118 641.815 413.11 646.461Z" fill="#4F5039" stroke="#4F5039" stroke-width="10"/>
</svg>
